<svg width="24" height="24" viewBox="0 0 24 24" fill="none" xmlns="http://www.w3.org/2000/svg">
<path d="M8.42317 1.37896L7.85669 1.13988L7.85769 1.14087C7.444 0.965272 6.97573 0.976185 6.57098 1.17063C6.16722 1.36507 5.86563 1.72421 5.74459 2.15674L5.57693 2.748C5.38645 3.3859 4.81403 3.83331 4.14935 3.86308L3.53426 3.89383C2.70292 3.93252 2.04814 4.61805 2.04616 5.45038C2.04616 5.54066 2.0541 5.63094 2.06898 5.71923L2.17314 6.3234V6.32439C2.28822 6.98511 1.96779 7.64482 1.3785 7.96426L0.829879 8.26684C0.434043 8.48014 0.150309 8.85315 0.0491284 9.29064C-0.0520628 9.72815 0.0401999 10.1875 0.302104 10.5526L0.66025 11.0605H0.659258C1.05113 11.6051 1.05113 12.3393 0.659258 12.8839L0.298141 13.3919H0.299132C0.0352337 13.754 -0.0600045 14.2123 0.0372401 14.6498C0.134462 15.0863 0.415221 15.4613 0.80707 15.6776L1.34576 15.9722C1.93306 16.2946 2.25053 16.9554 2.13248 17.6151L2.02335 18.2193V18.2203C2.00649 18.3115 1.99855 18.4038 1.99855 18.497C1.99954 19.3264 2.65034 20.0099 3.47871 20.0536L4.09379 20.0863C4.76343 20.122 5.33585 20.5814 5.51543 21.2272L5.68011 21.8185H5.68111C5.80214 22.249 6.10275 22.6072 6.50551 22.8016C6.90927 22.996 7.37556 23.0079 7.78826 22.8343L8.35474 22.5982C8.97477 22.3393 9.69005 22.505 10.1325 23.0099L10.5393 23.4722C10.8359 23.8075 11.2625 24 11.7099 24C12.1583 24 12.5839 23.8075 12.8806 23.4722L13.2893 23.0129V23.0119C13.7347 22.5109 14.45 22.3492 15.0671 22.6111L15.6336 22.8502C16.0472 23.0248 16.5155 23.0139 16.9203 22.8195C17.324 22.625 17.6256 22.2659 17.7466 21.8343L17.9143 21.2431V21.2421C18.1018 20.5972 18.6802 20.1439 19.3518 20.1171L19.9669 20.0893C20.4143 20.0685 20.831 19.8572 21.1117 19.5069C21.3925 19.1577 21.5086 18.7044 21.4322 18.2629L21.328 17.6587C21.2129 16.998 21.5334 16.3373 22.1227 16.0179L22.6713 15.7133C23.0671 15.5 23.3508 15.127 23.452 14.6895C23.5532 14.252 23.461 13.7927 23.199 13.4276L22.8409 12.9197H22.8419C22.45 12.375 22.45 11.6409 22.8419 11.0962L23.203 10.5883H23.202C23.4659 10.2262 23.5612 9.76786 23.4639 9.33038C23.3667 8.89386 23.0859 8.51887 22.6941 8.30259L22.1554 8.00794C21.5681 7.68552 21.2506 7.0248 21.3687 6.36506L21.4778 5.7609V5.75991C21.4937 5.66864 21.5026 5.57637 21.5026 5.48313C21.5016 4.65377 20.8508 3.97024 20.0224 3.92658L19.3955 3.91369C18.7258 3.87896 18.1534 3.41964 17.9728 2.7738L17.8081 2.18254V2.18154C17.6861 1.75099 17.3855 1.39284 16.9827 1.1994C16.58 1.00495 16.1127 0.993048 15.7 1.16567L15.1335 1.40178C14.5145 1.66169 13.7982 1.49602 13.3557 0.991062L12.949 0.528762C12.6523 0.192457 12.2267 0 11.7783 0C11.3309 0 10.9043 0.19246 10.6077 0.528762L10.2009 0.97816C9.75649 1.47916 9.04122 1.64087 8.42316 1.37895L8.42317 1.37896ZM11.5828 8.89186L11.7534 9.0625L11.9211 8.89484V8.89385C13.1126 7.70238 15.0462 7.70238 16.2386 8.89385C17.43 10.0863 17.43 12.0199 16.2386 13.2113L12.0829 17.354C11.9956 17.4414 11.8775 17.49 11.7545 17.49C11.6305 17.49 11.5124 17.4414 11.4251 17.354L7.27324 13.2012C6.08078 12.0087 6.08078 10.0761 7.27324 8.88369C8.4647 7.69123 10.3983 7.69123 11.5907 8.88369L11.5828 8.89186Z" fill="#131D28"/>
</svg>
