<svg width="24" height="20" viewBox="0 0 24 20" fill="none" xmlns="http://www.w3.org/2000/svg">
<path d="M9.77092 3.75089C9.77092 5.82162 8.0919 7.50072 6.02109 7.50072C3.94933 7.50072 2.2702 5.8217 2.2702 3.75089C2.2702 1.67912 3.94922 0 6.02109 0C8.09182 0 9.77092 1.67902 9.77092 3.75089Z" fill="#131D28"/>
<path d="M16.6865 10.4533L14.6386 13.0861L11.7399 9.52244C11.5799 9.22943 11.261 9.04346 10.889 9.04346H0.994715C0.22379 9.04346 -0.255192 9.86843 0.143782 10.5334L5.0916 19.0978C5.46355 19.7627 6.42151 19.7627 6.82048 19.0978L10.7573 12.2623L13.523 15.8259C13.523 15.8259 13.949 16.3579 14.5869 16.3579C15.2249 16.3579 15.5179 15.8789 15.5179 15.8789L18.6038 11.7833C18.6038 11.7833 21.0776 11.3573 21.5825 10.4264H16.6869L16.6865 10.4533Z" fill="#131D28"/>
<path d="M22.99 8.35122C22.99 8.35122 22.3781 4.97351 19.2133 4.97351C19.2133 4.97351 19.9053 4.73454 19.9053 4.17556C19.9053 3.61657 19.4793 3.35059 19.0804 3.35059C18.6814 3.35059 18.2554 3.58956 18.2554 4.17556C18.2554 4.73455 18.9474 4.97351 18.9474 4.97351C15.7827 4.97351 15.1707 8.35122 15.1707 8.35122C14.7717 8.35122 14.2127 8.48421 14.2127 9.14917C14.2127 9.81413 15.1166 9.89414 15.1166 9.89414H23.0961C23.0961 9.89414 24 9.81413 24 9.14917C23.9481 8.45823 23.3891 8.35122 22.9901 8.35122H22.99Z" fill="#131D28"/>
</svg>
