<svg width="80" height="80" viewBox="0 0 80 80" fill="none" xmlns="http://www.w3.org/2000/svg">
<path d="M40 80C62.0914 80 80 62.0914 80 40C80 17.9086 62.0914 0 40 0C17.9086 0 0 17.9086 0 40C0 62.0914 17.9086 80 40 80Z" fill="#E7342F"/>
<path d="M26.3542 39.9866C26.3577 36.3722 27.7952 32.9068 30.351 30.351C32.9068 27.7952 36.3721 26.3578 39.9866 26.3542V14.99C33.3535 14.99 26.9921 17.625 22.3018 22.3153C17.6115 27.0056 14.9765 33.367 14.9765 40.0001C14.9765 46.6332 17.6115 52.9946 22.3018 57.6849C26.9921 62.3752 33.3535 65.0102 39.9866 65.0102V53.6425C36.3681 53.639 32.8991 52.1983 30.3426 49.6375C27.7862 47.0766 26.3515 43.6051 26.3542 39.9866V39.9866Z" fill="white"/>
</svg>
