<svg width="12" height="24" viewBox="0 0 12 24" fill="none" xmlns="http://www.w3.org/2000/svg">
<path d="M0.383154 12.6522H2.98714V23.3724C2.98714 23.584 3.15864 23.7555 3.3703 23.7555H7.78546C7.99711 23.7555 8.16861 23.584 8.16861 23.3724V12.7027H11.1621C11.3568 12.7027 11.5205 12.5566 11.5427 12.3633L11.9974 8.41667C12.0099 8.30808 11.9755 8.19934 11.9028 8.11788C11.8301 8.03635 11.726 7.98968 11.6168 7.98968H8.16877V5.51573C8.16877 4.76996 8.57031 4.39179 9.36237 4.39179C9.47525 4.39179 11.6168 4.39179 11.6168 4.39179C11.8285 4.39179 12 4.22021 12 4.00863V0.385989C12 0.174335 11.8285 0.00283534 11.6168 0.00283534H8.50985C8.48793 0.00176251 8.43927 0 8.36755 0C7.82845 0 5.9546 0.105827 4.4744 1.46756C2.83434 2.97657 3.06232 4.78337 3.1168 5.09664V7.9896H0.383154C0.1715 7.9896 0 8.1611 0 8.37276V12.269C0 12.4806 0.1715 12.6522 0.383154 12.6522Z" fill="white"/>
</svg>
