<svg width="24" height="21" viewBox="0 0 24 21" fill="none" xmlns="http://www.w3.org/2000/svg">
<path d="M19.849 8.63225L18.5249 16.1354H5.4307L4.10663 8.63225C4.00835 8.0926 3.71354 7.603 3.27219 7.30817C2.83083 6.96509 2.24294 6.86681 1.70329 6.96509C1.16364 7.06336 0.674045 7.35817 0.379217 7.79952C0.0361309 8.24088 -0.0621421 8.82877 0.0361309 9.36842L1.75328 19.0302C1.85156 19.5699 2.14637 20.0595 2.58772 20.3543C3.02908 20.6974 3.61697 20.7956 4.15662 20.6974C4.45143 20.6491 4.69626 20.5508 4.94104 20.3543L5.03932 20.306H18.9664L19.0647 20.3543C19.3095 20.5008 19.5543 20.6491 19.8491 20.6974C20.3888 20.7956 20.9284 20.6491 21.418 20.3543C21.8594 20.0112 22.2024 19.5699 22.2524 19.0302L23.9696 9.36842C24.0679 8.82877 23.9213 8.28916 23.6265 7.79952C23.2834 7.35816 22.8421 7.01509 22.3024 6.96509C21.7628 6.86681 21.2232 7.01336 20.7335 7.30817C20.2404 7.60126 19.8974 8.04264 19.8491 8.63225H19.849Z" fill="#131D28"/>
<path d="M3.66527 6.67039C4.30316 7.11175 4.69452 7.74965 4.84281 8.48412L6.0686 15.3993H17.9372L19.163 8.48412C19.3595 7.30657 20.2905 6.42385 21.3698 6.22903V4.41532C21.3698 1.9637 19.4078 0.00172406 16.9562 0.00172406L6.99956 0C4.54794 0 2.58597 1.96197 2.58597 4.41359V6.22731C2.97905 6.27731 3.32216 6.42558 3.66522 6.67039L3.66527 6.67039Z" fill="#131D28"/>
</svg>
