<svg width="90" height="32" viewBox="0 0 90 32" fill="none" xmlns="http://www.w3.org/2000/svg">
<g clip-path="url(#clip0_334_386)">
<path fill-rule="evenodd" clip-rule="evenodd" d="M10.4844 20.9455L5.33527 12.5033V20.9455H0V0H5.33527V8.17455L10.4844 0H16.4131L10.1585 10.368L16.4131 20.9455H10.4844ZM30.8422 16.6633H24.2909L22.9469 20.9455H17.7105L24.6516 0H30.5455L37.4575 20.9455H32.2211L30.8422 16.6633ZM29.4691 12.2938L27.584 6.37091L25.6989 12.2938H29.4691ZM45.8356 20.9455H40.4771V5.33527H35.1127V0H51.2V5.33527H45.8356V20.9455ZM64.5236 7.79055H58.5367V0H53.2073V20.9455H58.5367V13.1258H64.5236V20.9455H69.8531V0H64.5236V7.79055ZM83.8516 0L80.3549 7.13891L76.8582 0H71.5287L77.6902 12.416V20.9455H83.0196V12.416L89.1811 0H83.8516ZM0 26.2807H51.2V31.5171H0V26.2807Z" fill="#131D28"/>
</g>
<defs>
<clipPath id="clip0_334_386">
<rect width="89.6" height="32" fill="white"/>
</clipPath>
</defs>
</svg>
