<svg width="80" height="80" viewBox="0 0 80 80" fill="none" xmlns="http://www.w3.org/2000/svg">
<path d="M80 0H0V80H80V0Z" fill="#131D28"/>
<path d="M34.9968 35.7333L43.9683 50.4318H54.2857L43.4032 32.0191L54.2857 13.9683H43.9683L34.9968 28.2032V13.9683H25.7143V50.4318H34.9968V35.7333Z" fill="white"/>
<path d="M54.2857 57.1428H25.7143V66.0317H54.2857V57.1428Z" fill="white"/>
<path d="M0 0V-1H-1V0H0ZM80 0H81V-1H80V0ZM80 80V81H81V80H80ZM0 80H-1V81H0V80ZM0 1H80V-1H0V1ZM79 0V80H81V0H79ZM80 79H0V81H80V79ZM1 80V0H-1V80H1Z" fill="white"/>
</svg>
