<svg width="12" height="10" viewBox="0 0 12 10" fill="none" xmlns="http://www.w3.org/2000/svg">
<path d="M10.9565 0H1.04348C0.466961 0 0 0.466961 0 1.04348V8.50443C0 8.78094 0.110218 9.04639 0.305864 9.24205C0.501511 9.4377 0.766948 9.54791 1.04348 9.54791H10.9565C11.233 9.54791 11.4985 9.43769 11.6941 9.24205C11.8898 9.0464 12 8.78096 12 8.50443V1.04348C12 0.766965 11.8898 0.501521 11.6941 0.305864C11.4985 0.110208 11.2331 0 10.9565 0ZM10.0748 2.90605L6.71479 4.82605C6.27327 5.08366 5.72674 5.08366 5.28523 4.82605L1.92523 2.90605C1.67479 2.76452 1.5861 2.44691 1.72696 2.19648C1.79609 2.07583 1.91023 1.98713 2.04392 1.95125C2.17826 1.91473 2.32175 1.93365 2.44174 2.00343L5.80174 3.92343C5.925 3.99125 6.075 3.99125 6.19826 3.92343L9.55826 2.00343C9.67826 1.93365 9.82174 1.91473 9.95609 1.95125C10.0898 1.98712 10.2039 2.07582 10.273 2.19648C10.4139 2.44691 10.3252 2.76452 10.0748 2.90605H10.0748Z" fill="white"/>
</svg>
