<svg width="24" height="24" viewBox="0 0 24 24" fill="none" xmlns="http://www.w3.org/2000/svg">
<path d="M22.897 0H1.08966C0.487588 0 0 0.487588 0 1.08966C0 1.69174 0.487588 2.18034 1.08966 2.18034V16.355C1.08966 16.6443 1.20517 16.9213 1.40962 17.1258C1.61407 17.3302 1.89106 17.4447 2.18034 17.4447H10.9027V19.1742L7.9517 22.1263C7.74113 22.3287 7.62154 22.6077 7.61848 22.9011C7.61643 23.1934 7.73092 23.4745 7.93843 23.681C8.14491 23.8875 8.42602 24.003 8.71837 23.9999C9.01072 23.9979 9.28978 23.8783 9.49318 23.6677L11.9935 21.1675L14.4937 23.6677C14.921 24.0807 15.6018 24.0746 16.0219 23.6544C16.443 23.2333 16.4481 22.5536 16.0352 22.1263L13.0842 19.1743V17.4447H21.8065C22.0958 17.4447 22.3728 17.3302 22.5773 17.1258C22.7817 16.9213 22.8972 16.6444 22.8972 16.3551V2.18038C23.4993 2.18038 23.9869 1.69177 23.9869 1.08969C23.9869 0.48762 23.4993 3.10699e-05 22.8972 3.10699e-05L22.897 0ZM20.7157 15.2643H3.27105V2.18032H20.7157V15.2643Z" fill="#131D28"/>
</svg>
