<svg width="24" height="24" viewBox="0 0 24 24" fill="none" xmlns="http://www.w3.org/2000/svg">
<path d="M12 0C5.39975 0 0 5.39975 0 12C0 18.6002 5.39975 24 12 24C18.6002 24 24 18.6002 24 12C24 5.39975 18.6002 0 12 0V0ZM5.14262 8.57213C5.14262 7.62877 5.91402 6.85738 6.85738 6.85738C7.80074 6.85738 8.57213 7.62877 8.57213 8.57213C8.57213 9.5155 7.80074 10.2869 6.85738 10.2869C5.91402 10.2853 5.14262 9.51389 5.14262 8.57213ZM17.742 17.2278C16.1993 18.7706 14.057 19.6271 12 19.6271C9.94295 19.6271 7.80074 18.8557 6.25795 17.2278C5.91565 16.8855 5.91565 16.3712 6.25795 16.0273C6.60026 15.685 7.11451 15.685 7.45845 16.0273C9.9446 18.5134 14.0587 18.5134 16.5432 16.0273C16.8855 15.685 17.3998 15.685 17.7437 16.0273C18.086 16.3712 18.086 16.8854 17.7421 17.2278H17.742ZM17.1426 10.2852C16.1993 10.2852 15.4279 9.51385 15.4279 8.57049C15.4279 7.62713 16.1993 6.85573 17.1426 6.85573C18.086 6.85573 18.8574 7.62713 18.8574 8.57049C18.8574 9.51385 18.086 10.2852 17.1426 10.2852V10.2852Z" fill="#131D28"/>
</svg>
