<svg width="24" height="20" viewBox="0 0 24 20" fill="none" xmlns="http://www.w3.org/2000/svg">
<path d="M23.4562 2.26772C23.0792 2.43492 22.6915 2.57606 22.2954 2.69067C22.7643 2.16033 23.1219 1.53633 23.3401 0.8535C23.389 0.700453 23.3383 0.532922 23.2125 0.432797C23.0868 0.332625 22.9123 0.320625 22.774 0.402609C21.9328 0.9015 21.0253 1.26005 20.0737 1.46967C19.1152 0.533063 17.8133 0 16.4674 0C13.6265 0 11.3153 2.31122 11.3153 5.15203C11.3153 5.37576 11.3294 5.59828 11.3575 5.8177C7.83217 5.50819 4.55477 3.77545 2.30421 1.01475C2.224 0.916359 2.10044 0.863297 1.97393 0.873469C1.84736 0.883359 1.7336 0.95475 1.66966 1.06448C1.21319 1.84772 0.971879 2.74355 0.971879 3.65503C0.971879 4.89647 1.41508 6.0743 2.19804 6.99469C1.95996 6.91223 1.72896 6.8092 1.50846 6.68681C1.3901 6.6209 1.24563 6.62194 1.12802 6.68934C1.01036 6.75679 0.936583 6.88078 0.933442 7.01634C0.932879 7.03917 0.932879 7.062 0.932879 7.08515C0.932879 8.93817 1.93019 10.6065 3.45499 11.5158C3.32397 11.5027 3.1931 11.4837 3.06302 11.4589C2.92891 11.4332 2.79105 11.4802 2.70063 11.5825C2.61007 11.6847 2.58007 11.8272 2.62183 11.9572C3.18621 13.7193 4.63928 15.0154 6.39592 15.4105C4.93896 16.3231 3.27283 16.8011 1.52379 16.8011C1.15882 16.8011 0.791786 16.7797 0.432583 16.7371C0.254129 16.7159 0.0835046 16.8213 0.0227077 16.991C-0.0380892 17.1608 0.026364 17.3501 0.178145 17.4474C2.4251 18.8881 5.02319 19.6496 7.69146 19.6496C12.9369 19.6496 16.2183 17.176 18.0474 15.101C20.3282 12.5135 21.6362 9.08873 21.6362 5.70483C21.6362 5.56345 21.634 5.42072 21.6297 5.2784C22.5295 4.60045 23.3042 3.77995 23.9347 2.83692C24.0304 2.69372 24.0201 2.50439 23.9091 2.37258C23.7985 2.24053 23.6138 2.19787 23.4562 2.26772Z" fill="white"/>
</svg>
