<svg width="24" height="24" viewBox="0 0 24 24" fill="none" xmlns="http://www.w3.org/2000/svg">
<path fill-rule="evenodd" clip-rule="evenodd" d="M12 0C16.2225 0 19.6445 3.42288 19.6445 7.64448C19.6445 11.0026 14.2248 17.328 12 20.791C9.77531 17.3268 4.35551 11.0026 4.35551 7.64448C4.35551 3.42192 7.77839 0 12 0V0ZM4.64159 21.69H19.3593L21.1303 24H2.87061L4.64159 21.69ZM12 5.32488C13.7034 5.32488 15.0852 6.70582 15.0852 8.40936C15.0852 10.1128 13.7043 11.4938 12 11.4938C10.2965 11.4938 8.91551 10.1129 8.91551 8.40936C8.91551 6.70591 10.2964 5.32488 12 5.32488V5.32488Z" fill="#131D28"/>
</svg>
